<svg width="30" height="25" viewBox="0 0 30 25" fill="none" xmlns="http://www.w3.org/2000/svg">
<path d="M12.6605 3.59965L12.2889 4.2511L12.6605 3.59965ZM13.1537 5.44019L13.8012 5.81856L13.1537 5.44019ZM11.101 2.68842L11.4727 2.03697L11.101 2.68842ZM4.60103 14.0824L4.97266 13.4309L4.60103 14.0824ZM6.16053 14.9936L5.78889 15.6451L6.16053 14.9936ZM7.98208 14.5056L7.33452 14.1272L7.98208 14.5056ZM25.1068 12.9675L25.4785 12.3161L24.8309 11.9377L24.4593 12.5891L25.1068 12.9675ZM26.9628 14.0519L26.5911 14.7034L26.9628 14.0519ZM20.3999 21.2183L19.7524 20.84L19.3808 21.4914L20.0283 21.8698L20.3999 21.2183ZM6.76079 2.2478L7.13242 1.59635L7.13242 1.59635L6.76079 2.2478ZM8.6167 3.33223L9.26426 3.7106L9.6359 3.05915L8.98834 2.68078L8.6167 3.33223ZM4.93924 2.73585L4.29168 2.35748L4.93924 2.73585ZM1.56075 8.65807L0.913189 8.2797L1.56075 8.65807ZM3.9098 11.583L3.53817 12.2345L4.18573 12.6129L4.55736 11.9614L3.9098 11.583ZM12.036 8.71509L12.4076 8.06364L11.7601 7.68526L11.3884 8.33671L12.036 8.71509ZM18.791 12.6621L19.4385 13.0404L19.8102 12.389L19.1626 12.0106L18.791 12.6621ZM10.2774 11.7978L9.6298 11.4194L9.25816 12.0709L9.90572 12.4493L10.2774 11.7978ZM17.0324 15.7448L16.6607 16.3962L17.3083 16.7746L17.6799 16.1232L17.0324 15.7448ZM23.2277 8.90549C22.2309 8.32304 20.959 8.66381 20.3869 9.66662L21.6821 10.4234C21.8436 10.1401 22.2029 10.0439 22.4844 10.2084L23.2277 8.90549ZM24.7872 9.81672L23.2277 8.90549L22.4844 10.2084L24.0439 11.1196L24.7872 9.81672ZM25.5562 12.6871C26.1283 11.6843 25.784 10.3992 24.7872 9.81672L24.0439 11.1196C24.3255 11.2841 24.4227 11.6471 24.2611 11.9303L25.5562 12.6871ZM20.3847 21.7525L25.5562 12.6871L24.2611 11.9303L19.0895 20.9957L20.3847 21.7525ZM17.5439 22.5136C18.5407 23.096 19.8126 22.7553 20.3847 21.7525L19.0895 20.9957C18.928 21.279 18.5687 21.3752 18.2872 21.2107L17.5439 22.5136ZM15.9844 21.6024L17.5439 22.5136L18.2872 21.2107L16.7277 20.2995L15.9844 21.6024ZM15.2153 18.732C14.6433 19.7348 14.9876 21.0199 15.9844 21.6024L16.7277 20.2995C16.4461 20.135 16.3489 19.772 16.5105 19.4888L15.2153 18.732ZM20.3869 9.66662L15.2153 18.732L16.5105 19.4888L21.6821 10.4234L20.3869 9.66662ZM12.2889 4.2511C12.5704 4.41561 12.6677 4.77858 12.5061 5.06182L13.8012 5.81856C14.3733 4.81575 14.029 3.53065 13.0322 2.9482L12.2889 4.2511ZM10.7294 3.33987L12.2889 4.2511L13.0322 2.9482L11.4727 2.03697L10.7294 3.33987ZM9.92704 3.55485C10.0886 3.27161 10.4478 3.17536 10.7294 3.33987L11.4727 2.03697C10.4758 1.45453 9.204 1.79529 8.63192 2.7981L9.92704 3.55485ZM4.75545 12.6202L9.92704 3.55485L8.63192 2.7981L3.46033 11.8635L4.75545 12.6202ZM4.97266 13.4309C4.69112 13.2664 4.59387 12.9035 4.75545 12.6202L3.46033 11.8635C2.88825 12.8663 3.23257 14.1514 4.22939 14.7338L4.97266 13.4309ZM6.53217 14.3422L4.97266 13.4309L4.22939 14.7338L5.78889 15.6451L6.53217 14.3422ZM7.33452 14.1272C7.17294 14.4104 6.81371 14.5067 6.53217 14.3422L5.78889 15.6451C6.78571 16.2275 8.05756 15.8868 8.62964 14.8839L7.33452 14.1272ZM12.5061 5.06182L7.33452 14.1272L8.62964 14.8839L13.8012 5.81856L12.5061 5.06182ZM24.7352 13.619L26.5911 14.7034L27.3344 13.4005L25.4785 12.3161L24.7352 13.619ZM21.0475 21.5967L25.7544 13.3459L24.4593 12.5891L19.7524 20.84L21.0475 21.5967ZM22.6275 21.6513L20.7716 20.5669L20.0283 21.8698L21.8842 22.9542L22.6275 21.6513ZM23.4299 21.4363C23.2683 21.7196 22.909 21.8158 22.6275 21.6513L21.8842 22.9542C22.881 23.5366 24.1529 23.1959 24.725 22.1931L23.4299 21.4363ZM26.8083 15.5141L23.4299 21.4363L24.725 22.1931L28.1035 16.2709L26.8083 15.5141ZM26.5911 14.7034C26.8727 14.8679 26.9699 15.2309 26.8083 15.5141L28.1035 16.2709C28.6755 15.268 28.3312 13.9829 27.3344 13.4005L26.5911 14.7034ZM6.38915 2.89925L8.24507 3.98367L8.98834 2.68078L7.13242 1.59635L6.38915 2.89925ZM5.5868 3.11423C5.74838 2.83099 6.1076 2.73474 6.38915 2.89925L7.13242 1.59635C6.1356 1.0139 4.86376 1.35467 4.29168 2.35748L5.5868 3.11423ZM2.20831 9.03645L5.5868 3.11423L4.29168 2.35748L0.913189 8.2797L2.20831 9.03645ZM2.42553 9.84716C2.14398 9.68265 2.04673 9.31968 2.20831 9.03645L0.913189 8.2797C0.34111 9.28251 0.685432 10.5676 1.68225 11.1501L2.42553 9.84716ZM4.28144 10.9316L2.42553 9.84716L1.68225 11.1501L3.53817 12.2345L4.28144 10.9316ZM7.96914 2.95385L3.26224 11.2047L4.55736 11.9614L9.26426 3.7106L7.96914 2.95385ZM11.6643 9.36653L18.4193 13.3135L19.1626 12.0106L12.4076 8.06364L11.6643 9.36653ZM10.9249 12.1762L12.6835 9.09346L11.3884 8.33671L9.6298 11.4194L10.9249 12.1762ZM17.404 15.0933L10.649 11.1464L9.90572 12.4493L16.6607 16.3962L17.404 15.0933ZM18.1434 12.2837L16.3848 15.3664L17.6799 16.1232L19.4385 13.0404L18.1434 12.2837Z" fill="black" fill-opacity="0.6"/>
</svg>
