<svg width="30" height="25" viewBox="0 0 30 25" fill="none" xmlns="http://www.w3.org/2000/svg">
<path fill-rule="evenodd" clip-rule="evenodd" d="M21.0345 10.045C21.4013 9.40198 22.2169 9.18347 22.8561 9.55695L24.4156 10.4682C25.0547 10.8417 25.2755 11.6657 24.9087 12.3087L19.7371 21.3741C19.3703 22.0171 18.5547 22.2356 17.9156 21.8621L16.3561 20.9509C15.7169 20.5774 15.4961 19.7534 15.8629 19.1104L21.0345 10.045ZM13.1537 5.4402C13.5205 4.79717 13.2997 3.97314 12.6605 3.59966L11.101 2.68843C10.4619 2.31495 9.64632 2.53346 9.2795 3.17648L4.1079 12.2419C3.74107 12.8849 3.96186 13.7089 4.60104 14.0824L6.16054 14.9936C6.79973 15.3671 7.61526 15.1486 7.98209 14.5056L13.1537 5.4402ZM26.9628 14.052L25.1069 12.9675L20.4 21.2183L22.2559 22.3028C22.8951 22.6762 23.7106 22.4577 24.0774 21.8147L27.4559 15.8925C27.8227 15.2495 27.602 14.4254 26.9628 14.052ZM8.61672 3.33223L6.7608 2.24781C6.12162 1.87433 5.30608 2.09284 4.93925 2.73586L1.56076 8.65808C1.19393 9.30111 1.41472 10.1251 2.0539 10.4986L3.90982 11.583L8.61672 3.33223ZM18.791 12.6621L12.036 8.71509L10.2774 11.7978L17.0324 15.7448L18.791 12.6621Z" fill="#007AFF"/>
</svg>
