<svg width="24" height="24" viewBox="0 0 24 24" fill="none" xmlns="http://www.w3.org/2000/svg">
<path fill-rule="evenodd" clip-rule="evenodd" d="M8.75 3C9.16421 3 9.5 3.33579 9.5 3.75V4H14.5V3.75C14.5 3.33579 14.8358 3 15.25 3C15.6642 3 16 3.33579 16 3.75V4H16.9811C18.6484 4 20 5.35159 20 7.01887V8.5V10V16.9811C20 18.6484 18.6484 20 16.9811 20H7.01887C5.35159 20 4 18.6484 4 16.9811V10V8.5V7.01887C4 5.35159 5.35159 4 7.01887 4H8V3.75C8 3.33579 8.33579 3 8.75 3ZM14.5427 5.5C14.6456 5.7913 14.9234 6 15.25 6C15.5766 6 15.8544 5.7913 15.9573 5.5H16.9811C17.82 5.5 18.5 6.18002 18.5 7.01887V8.5H5.5V7.01887C5.5 6.18002 6.18002 5.5 7.01887 5.5H8.04268C8.14564 5.7913 8.42344 6 8.75 6C9.07655 6 9.35436 5.7913 9.45732 5.5H14.5427ZM18.5 10V16.9811C18.5 17.82 17.82 18.5 16.9811 18.5H7.01887C6.18002 18.5 5.5 17.82 5.5 16.9811V10H18.5Z" fill="#333333" fill-opacity="0.6"/>
</svg>
