<svg width="56" height="51" viewBox="0 0 56 51" fill="none" xmlns="http://www.w3.org/2000/svg">
<path d="M27.4131 31.7822L33.6196 25.8709L27.4131 19.9596" stroke="white" stroke-width="2.11222" stroke-linecap="round" stroke-linejoin="round"/>
<path d="M33.6196 25.8709H15.0001" stroke="white" stroke-width="2.11222" stroke-linecap="round" stroke-linejoin="round"/>
<path d="M17.0688 21.9301V16.0032C17.0688 13.8328 18.9114 12.071 21.1901 12.0624L37.6421 12.0001C39.9273 11.9916 41.7871 13.7489 41.7962 15.9254L41.8785 35.6872C41.8875 37.8637 40.0424 39.6351 37.7572 39.6437C37.7517 39.6437 37.7463 39.6437 37.7408 39.6437H21.2065C18.9213 39.6437 17.0688 37.8793 17.0688 35.7029V29.8118" stroke="white" stroke-width="2.11222" stroke-linecap="round" stroke-linejoin="round"/>
<path d="M33.6196 25.8709H15.0001" stroke="white" stroke-width="2.11222" stroke-linecap="round" stroke-linejoin="round"/>
<path d="M1.97856 8.31L1.78181 2.79701C1.75427 2.02509 2.35773 1.37794 3.1297 1.35156L8.7943 1.158" stroke="white" stroke-width="2.09787" stroke-linecap="round"/>
<path d="M9.04088 49.5581L3.37628 49.7517C2.60432 49.778 1.95618 49.1737 1.92864 48.4017L1.73189 42.8887" stroke="white" stroke-width="2.09787" stroke-linecap="round"/>
<path d="M47.2052 49.7995L52.8698 49.6059C53.6418 49.5795 54.2452 48.9324 54.2177 48.1604L54.021 42.6475" stroke="white" stroke-width="2.09787" stroke-linecap="round"/>
<path d="M46.9586 1.39935L53.3221 1.1819C53.7081 1.16871 54.0322 1.4709 54.0459 1.85687L54.2676 8.0687" stroke="white" stroke-width="2.09787" stroke-linecap="round"/>
</svg>
