<svg width="24" height="22" viewBox="0 0 24 22" fill="none" xmlns="http://www.w3.org/2000/svg">
<path d="M9.14727 12.9539H8.39727V13.7039V20.1346C8.39727 20.4363 8.15274 20.6707 7.87644 20.6707H4.06394C3.78764 20.6707 3.5431 20.4363 3.5431 20.1346V11.1316V10.3816H2.7931H0.921872L11.3409 0.88391C11.3411 0.883697 11.3414 0.883484 11.3416 0.883272C11.5386 0.705576 11.8393 0.705576 12.0363 0.883272C12.0365 0.883484 12.0367 0.883697 12.037 0.88391L22.456 10.3816H20.5848H19.8348V11.1316V20.1346C19.8348 20.4363 19.5902 20.6707 19.3139 20.6707H15.5014C15.2251 20.6707 14.9806 20.4363 14.9806 20.1346V13.7039V12.9539H14.2306H9.14727Z" stroke="black" stroke-opacity="0.6" stroke-width="1.5"/>
</svg>
