<svg width="56" height="51" viewBox="0 0 56 51" fill="none" xmlns="http://www.w3.org/2000/svg">
<path d="M1.97856 8.31L1.78181 2.79701C1.75427 2.02509 2.35773 1.37794 3.1297 1.35156L8.7943 1.158" stroke="white" stroke-width="2.09787" stroke-linecap="round"/>
<path d="M9.04088 49.5581L3.37628 49.7517C2.60432 49.778 1.95618 49.1737 1.92864 48.4017L1.73189 42.8887" stroke="white" stroke-width="2.09787" stroke-linecap="round"/>
<path d="M47.2052 49.7995L52.8698 49.6059C53.6418 49.5795 54.2452 48.9324 54.2177 48.1604L54.021 42.6475" stroke="white" stroke-width="2.09787" stroke-linecap="round"/>
<path d="M46.9586 1.39938L53.3221 1.18193C53.7081 1.16874 54.0322 1.47093 54.0459 1.8569L54.2676 8.06873" stroke="white" stroke-width="2.09787" stroke-linecap="round"/>
<path d="M35.8261 26.4132L22.7988 33.7546V18.9219L35.8261 26.4132Z" stroke="white" stroke-width="1.5" stroke-linecap="square"/>
<path d="M27.3083 40.6765C35.3332 40.6765 41.8388 34.257 41.8388 26.3382C41.8388 18.4194 35.3332 12 27.3083 12C19.2833 12 12.7778 18.4194 12.7778 26.3382C12.7778 34.257 19.2833 40.6765 27.3083 40.6765Z" stroke="white" stroke-width="1.5" stroke-linecap="square"/>
</svg>
