<svg width="16" height="20" viewBox="0 0 16 20" fill="none" xmlns="http://www.w3.org/2000/svg">
<path fill-rule="evenodd" clip-rule="evenodd" d="M7.99995 1.38107C6.07028 1.38107 4.42646 3.07127 4.42646 5.25775C4.42646 7.44422 6.07028 9.13442 7.99995 9.13442C9.92962 9.13442 11.5734 7.44422 11.5734 5.25775C11.5734 3.07127 9.92962 1.38107 7.99995 1.38107ZM3.04539 5.25775C3.04539 2.39942 5.21971 0 7.99995 0C10.7802 0 12.9545 2.39942 12.9545 5.25775C12.9545 8.11607 10.7802 10.5155 7.99995 10.5155C5.21971 10.5155 3.04539 8.11607 3.04539 5.25775ZM3.4903 12.4731C2.62367 12.4896 1.8355 13.1953 1.71604 14.2199L1.38924 17.0225C1.30594 17.7369 1.82284 18.2688 2.36415 18.2688H13.6357C14.177 18.2688 14.6939 17.7369 14.6106 17.0225L14.2838 14.2199L14.2838 14.2199C14.1645 13.1966 13.3782 12.4915 12.513 12.4732C11.7637 12.4826 11.2198 12.6808 10.5633 12.92L10.5615 12.9207C9.881 13.1686 9.09796 13.452 7.99992 13.452C6.9254 13.452 6.22188 13.1798 5.59616 12.9377L5.5402 12.916C4.94427 12.6858 4.39249 12.4817 3.4903 12.4731ZM3.35063 11.0965C1.777 11.1831 0.530772 12.4604 0.344263 14.0599L0.0174694 16.8625L0.56776 16.9267L0.0174693 16.8625C-0.148962 18.2899 0.89199 19.6499 2.36415 19.6499H13.6357C15.1078 19.6499 16.1488 18.2899 15.9824 16.8625L15.3158 16.9403L15.9824 16.8625L15.6556 14.0599L15.6556 14.0599C15.469 12.4603 14.2228 11.183 12.6492 11.0965C12.6227 11.0934 12.5958 11.0918 12.5685 11.0918C12.5515 11.0918 12.5345 11.0919 12.5176 11.092C12.5046 11.0919 12.4916 11.0918 12.4785 11.0918H12.1842C12.1126 11.0918 12.0435 11.1027 11.9785 11.1229C11.2449 11.2013 10.6618 11.414 10.137 11.6054L10.0886 11.6231C9.42567 11.8647 8.83814 12.0709 7.99992 12.0709C7.18456 12.0709 6.6826 11.8769 6.07003 11.6402L6.03788 11.6277C5.48796 11.4153 4.87176 11.1839 3.98757 11.1134C3.9326 11.0993 3.87499 11.0918 3.81563 11.0918H3.52135C3.50926 11.0918 3.4972 11.0918 3.48515 11.092C3.46731 11.0919 3.44937 11.0918 3.43134 11.0918C3.40404 11.0918 3.3771 11.0934 3.35063 11.0965Z" fill="black" fill-opacity="0.6"/>
</svg>
