<svg width="19" height="22" viewBox="0 0 19 22" fill="none" xmlns="http://www.w3.org/2000/svg">
<path fill-rule="evenodd" clip-rule="evenodd" d="M3.49539 5.93936C3.49539 2.66802 6.12504 0 9.3886 0C12.6522 0 15.2818 2.66802 15.2818 5.93936C15.2818 9.21071 12.6522 11.8787 9.3886 11.8787C6.12504 11.8787 3.49539 9.21071 3.49539 5.93936ZM4.03877 12.0012C2.16715 12.1022 0.630316 13.5427 0.397741 15.4225L0.022726 18.4535C-0.192945 20.1966 1.15325 21.7574 2.92101 21.7574H15.8557C17.6235 21.7574 18.9697 20.1967 18.7541 18.4535L18.3791 15.4225C18.1464 13.5426 16.6094 12.1019 14.7377 12.0012C14.7026 11.9975 14.6671 11.9956 14.631 11.9956L14.5725 11.9958L14.5279 11.9956H14.1901C14.0977 11.9956 14.0081 12.0081 13.9231 12.0316C13.0689 12.1195 12.3899 12.3528 11.7903 12.5589L11.7903 12.5589L11.7318 12.579C10.9741 12.8391 10.3219 13.054 9.38832 13.054C8.48129 13.054 7.92822 12.8527 7.22739 12.5976L7.19318 12.5851C6.55871 12.3542 5.83868 12.0994 4.80887 12.0204C4.7374 12.0042 4.66304 11.9956 4.58667 11.9956H4.24897L4.20751 11.9958L4.1456 11.9956C4.10951 11.9956 4.07387 11.9975 4.03877 12.0012Z" fill="#007AFF"/>
</svg>
