<svg width="56" height="51" viewBox="0 0 56 51" fill="none" xmlns="http://www.w3.org/2000/svg">
<path d="M1.97856 8.31L1.78181 2.79701C1.75427 2.02509 2.35773 1.37794 3.1297 1.35156L8.7943 1.158" stroke="white" stroke-width="2.09787" stroke-linecap="round"/>
<path d="M9.04088 49.5581L3.37628 49.7517C2.60432 49.778 1.95618 49.1737 1.92864 48.4017L1.73189 42.8887" stroke="white" stroke-width="2.09787" stroke-linecap="round"/>
<path d="M47.2052 49.7995L52.8698 49.6059C53.6418 49.5795 54.2452 48.9324 54.2177 48.1604L54.021 42.6475" stroke="white" stroke-width="2.09787" stroke-linecap="round"/>
<path d="M46.9586 1.39938L53.3221 1.18193C53.7081 1.16874 54.0322 1.47093 54.0459 1.8569L54.2676 8.06873" stroke="white" stroke-width="2.09787" stroke-linecap="round"/>
<path d="M14 14.8469V32.0795C14 32.4278 14.2823 32.7102 14.6306 32.7102C14.8034 32.7102 14.9686 32.6393 15.0876 32.5141L17.4191 30.0625C17.7677 29.6958 18.2515 29.4883 18.7574 29.4883H32.1589C33.1789 29.4883 34.0058 28.6614 34.0058 27.6414V14.8469C34.0058 13.8269 33.1789 13 32.1589 13H15.8469C14.8269 13 14 13.8269 14 14.8469Z" stroke="white" stroke-width="1.51111"/>
<path d="M21.1943 32.316V31.5604H20.4388V32.316H21.1943ZM37.781 37.4647L37.2335 37.9854L37.2335 37.9854L37.781 37.4647ZM40.1125 39.9164L39.565 40.437L39.565 40.437L40.1125 39.9164ZM36.7653 20.4023V19.6467H36.0098V20.4023H36.7653ZM21.9499 35.0437V32.316H20.4388V35.0437H21.9499ZM23.0413 36.135C22.4385 36.135 21.9499 35.6464 21.9499 35.0437H20.4388C20.4388 36.481 21.6039 37.6461 23.0413 37.6461V36.135ZM36.4427 36.135H23.0413V37.6461H36.4427V36.135ZM38.3286 36.944C37.8373 36.4275 37.1556 36.135 36.4427 36.135V37.6461C36.7417 37.6461 37.0275 37.7688 37.2335 37.9854L38.3286 36.944ZM40.66 39.3957L38.3286 36.944L37.2335 37.9854L39.565 40.437L40.66 39.3957ZM40.5695 39.3569C40.6037 39.3569 40.6365 39.3709 40.66 39.3957L39.565 40.437C39.8267 40.7122 40.1898 40.868 40.5695 40.868V39.3569ZM40.4446 39.4818C40.4446 39.4128 40.5005 39.3569 40.5695 39.3569V40.868C41.3351 40.868 41.9557 40.2474 41.9557 39.4818H40.4446ZM40.4446 22.2492V39.4818H41.9557V22.2492H40.4446ZM39.3532 21.1578C39.956 21.1578 40.4446 21.6464 40.4446 22.2492H41.9557C41.9557 20.8119 40.7905 19.6467 39.3532 19.6467V21.1578ZM36.7653 21.1578H39.3532V19.6467H36.7653V21.1578ZM36.0098 20.4023V29.1426H37.5209V20.4023H36.0098ZM36.0098 29.1426C36.0098 30.4779 34.9273 31.5604 33.592 31.5604V33.0715C35.7619 33.0715 37.5209 31.3125 37.5209 29.1426H36.0098ZM33.592 31.5604H21.1943V33.0715H33.592V31.5604Z" fill="white"/>
</svg>
