<svg width="27" height="27" viewBox="0 0 27 27" fill="none" xmlns="http://www.w3.org/2000/svg">
<g clip-path="url(#clip0_347_3699)">
<path d="M25.618 10.6659L23.7229 10.3444C23.5254 9.7071 23.2716 9.09231 22.9614 8.50573L24.0782 6.94338C24.552 6.27783 24.4786 5.36975 23.8977 4.79445L22.2169 3.11366C21.9011 2.7978 21.4837 2.62296 21.0381 2.62296C20.6884 2.62296 20.3556 2.73012 20.0736 2.93317L18.5056 4.04994C17.8965 3.72844 17.2591 3.46335 16.5992 3.26594L16.2834 1.39338C16.148 0.586829 15.4543 0.000244141 14.6364 0.000244141H12.2619C11.444 0.000244141 10.7503 0.586829 10.6149 1.39338L10.2878 3.31106C9.65609 3.50847 9.0413 3.76792 8.45472 4.08378L6.90365 2.96701C6.62164 2.76396 6.28323 2.6568 5.93353 2.6568C5.48795 2.6568 5.06494 2.83164 4.75472 3.1475L3.06829 4.82829C2.49299 5.40359 2.41402 6.31167 2.8878 6.97722L4.01585 8.56213C3.70564 9.15435 3.45747 9.76914 3.2657 10.4065L1.39314 10.7223C0.586585 10.8577 0 11.5515 0 12.3693V14.7438C0 15.5617 0.586585 16.2554 1.39314 16.3908L3.31082 16.7179C3.50823 17.3496 3.76768 17.9644 4.08353 18.551L2.97241 20.0964C2.49863 20.762 2.57195 21.67 3.15289 22.2453L4.83369 23.9261C5.14954 24.242 5.56692 24.4168 6.0125 24.4168C6.36219 24.4168 6.69497 24.3097 6.97698 24.1066L8.56188 22.9786C9.13155 23.2775 9.72941 23.52 10.3442 23.7118L10.6601 25.6069C10.7954 26.4135 11.4892 27.0001 12.307 27.0001H14.6872C15.505 27.0001 16.1988 26.4135 16.3341 25.6069L16.6556 23.7118C17.293 23.5144 17.9078 23.2606 18.4943 22.9504L20.0567 24.0671C20.3387 24.2702 20.6771 24.3774 21.0268 24.3774C21.4724 24.3774 21.8898 24.2025 22.2056 23.8867L23.8864 22.2059C24.4617 21.6306 24.5407 20.7225 24.0669 20.0569L22.9501 18.489C23.2604 17.8967 23.5198 17.2819 23.7116 16.6502L25.6067 16.3344C26.4132 16.199 26.9998 15.5053 26.9998 14.6874V12.3129C27.0111 11.4951 26.4245 10.8013 25.618 10.6659ZM25.4882 14.6874C25.4882 14.7608 25.4375 14.8228 25.3642 14.8341L22.9953 15.2289C22.6963 15.2797 22.4594 15.4996 22.3861 15.7873C22.1718 16.6164 21.8447 17.4117 21.4047 18.1505C21.2524 18.41 21.2637 18.7315 21.4386 18.9797L22.8317 20.9425C22.8712 20.9989 22.8655 21.0835 22.8148 21.1342L21.134 22.815C21.0945 22.8545 21.055 22.8601 21.0268 22.8601C20.993 22.8601 20.9648 22.8489 20.9422 22.8319L18.9851 21.4388C18.7425 21.2639 18.4154 21.2527 18.1559 21.405C17.4171 21.8449 16.6218 22.172 15.7927 22.3864C15.4994 22.4597 15.2794 22.7022 15.2343 22.9955L14.8338 25.3644C14.8226 25.4377 14.7605 25.4885 14.6872 25.4885H12.3126C12.2393 25.4885 12.1773 25.4377 12.166 25.3644L11.7712 22.9955C11.7204 22.6966 11.5005 22.4597 11.2128 22.3864C10.4062 22.1777 9.62789 21.8562 8.9003 21.4388C8.78185 21.3711 8.64649 21.3373 8.51676 21.3373C8.36448 21.3373 8.20655 21.3824 8.07682 21.4783L6.10274 22.8827C6.07454 22.8996 6.04634 22.9109 6.01814 22.9109C5.99558 22.9109 5.95045 22.9053 5.91097 22.8658L4.23018 21.185C4.17942 21.1342 4.17378 21.0553 4.21326 20.9932L5.60076 19.0473C5.77561 18.7992 5.78689 18.472 5.6346 18.2126C5.19466 17.4793 4.85625 16.6841 4.64192 15.855C4.56295 15.5673 4.32606 15.3473 4.03277 15.2966L1.64695 14.8905C1.57363 14.8792 1.52286 14.8172 1.52286 14.7438V12.3693C1.52286 12.296 1.57363 12.2339 1.64695 12.2226L3.99893 11.8278C4.29786 11.7771 4.54039 11.5571 4.61372 11.2638C4.82241 10.4347 5.1439 9.63377 5.5782 8.8949C5.73048 8.63545 5.71356 8.31396 5.53872 8.07143L4.1343 6.09734C4.09481 6.04094 4.10045 5.95634 4.15122 5.90558L5.83201 4.22478C5.87149 4.1853 5.91097 4.17966 5.93917 4.17966C5.97301 4.17966 6.00122 4.19094 6.02378 4.20786L7.96966 5.59536C8.21783 5.77021 8.54496 5.78149 8.80442 5.6292C9.53765 5.18927 10.3329 4.85085 11.162 4.63652C11.4497 4.55756 11.6697 4.32067 11.7204 4.02738L12.1265 1.64155C12.1378 1.56823 12.1998 1.51747 12.2732 1.51747H14.6477C14.721 1.51747 14.7831 1.56823 14.7943 1.64155L15.1892 3.99353C15.2399 4.29247 15.4599 4.535 15.7532 4.60832C16.6049 4.82265 17.4171 5.15542 18.1729 5.601C18.4323 5.75329 18.7538 5.74201 19.002 5.56716L20.9479 4.16838C20.9761 4.15146 21.0043 4.14018 21.0325 4.14018C21.055 4.14018 21.1001 4.14582 21.1396 4.1853L22.8204 5.86609C22.8712 5.91686 22.8768 5.99582 22.8373 6.05786L21.4442 8.01503C21.2693 8.25756 21.2581 8.58469 21.4104 8.84414C21.8503 9.58301 22.1774 10.3783 22.3918 11.2074C22.4651 11.5007 22.7076 11.7207 23.0009 11.7658L25.3698 12.1662C25.4431 12.1775 25.4939 12.2396 25.4939 12.3129V14.6874H25.4882Z" fill="black"/>
<path d="M13.5026 7.67078C10.2877 7.67078 7.67627 10.2822 7.67627 13.4971C7.67627 16.7121 10.2877 19.3235 13.5026 19.3235C16.7176 19.3235 19.329 16.7121 19.329 13.4971C19.329 10.2822 16.7176 7.67078 13.5026 7.67078ZM13.5026 17.8006C11.1281 17.8006 9.19913 15.8717 9.19913 13.4971C9.19913 11.1226 11.1281 9.19364 13.5026 9.19364C15.8772 9.19364 17.8061 11.1226 17.8061 13.4971C17.8061 15.8717 15.8772 17.8006 13.5026 17.8006Z" fill="black"/>
</g>
<defs>
<clipPath id="clip0_347_3699">
<rect width="27" height="27" fill="white"/>
</clipPath>
</defs>
</svg>
