<svg width="22" height="23" viewBox="0 0 22 23" fill="none" xmlns="http://www.w3.org/2000/svg">
<path fill-rule="evenodd" clip-rule="evenodd" d="M17.1286 1.57143H4.87143C3.04889 1.57143 1.57143 3.04889 1.57143 4.87142V5.85923H20.4286V4.87143C20.4286 3.04889 18.9511 1.57143 17.1286 1.57143ZM0 5.85923V7.44959V17.3936C0 20.084 2.18101 22.2651 4.87143 22.2651H17.1286C19.819 22.2651 22 20.0841 22 17.3936V7.44959V5.85923V4.87143C22 2.18101 19.819 0 17.1286 0H4.87143C2.18101 0 0 2.18101 0 4.87142V5.85923ZM20.4286 17.3936V7.44959H1.57143V17.3936C1.57143 19.2162 3.04889 20.6936 4.87143 20.6936H17.1286C18.9511 20.6936 20.4286 19.2162 20.4286 17.3936ZM10.12 9.65308C9.4949 9.65308 8.98813 10.1599 8.98813 10.785V12.315C8.98813 12.9402 9.4949 13.4469 10.12 13.4469H11.6049C12.23 13.4469 12.7368 12.9402 12.7368 12.315V10.785C12.7368 10.1599 12.23 9.65308 11.6049 9.65308H10.12ZM14.4737 10.785C14.4737 10.1599 14.9805 9.65308 15.6056 9.65308H17.0905C17.7156 9.65308 18.2224 10.1599 18.2224 10.785V12.315C18.2224 12.9402 17.7156 13.4469 17.0905 13.4469H15.6056C14.9805 13.4469 14.4737 12.9402 14.4737 12.315V10.785ZM4.6056 9.65308C3.98047 9.65308 3.47369 10.1599 3.47369 10.785V12.315C3.47369 12.9402 3.98047 13.4469 4.6056 13.4469H6.09048C6.71561 13.4469 7.22238 12.9402 7.22238 12.315V10.785C7.22238 10.1599 6.71561 9.65308 6.09047 9.65308H4.6056ZM8.98813 16.3513C8.98813 15.7261 9.4949 15.2193 10.12 15.2193H11.6049C12.23 15.2193 12.7368 15.7261 12.7368 16.3513V17.8813C12.7368 18.5064 12.23 19.0132 11.6049 19.0132H10.12C9.4949 19.0132 8.98813 18.5064 8.98813 17.8813V16.3513ZM4.6056 15.2193C3.98047 15.2193 3.47369 15.7261 3.47369 16.3513V17.8813C3.47369 18.5064 3.98047 19.0132 4.6056 19.0132H6.09048C6.71561 19.0132 7.22238 18.5064 7.22238 17.8813V16.3513C7.22238 15.7261 6.71561 15.2193 6.09047 15.2193H4.6056Z" fill="black" fill-opacity="0.6"/>
</svg>
